<svg width="58" height="58" viewBox="0 0 58 58" fill="none" xmlns="http://www.w3.org/2000/svg">
<path d="M56.0968 28.5469C50.6593 19.0312 40.6 12.6875 29 12.6875C17.4 12.6875 7.3406 19.0312 1.9031 28.5469L1.63123 29L1.9031 29.4531C7.3406 38.9688 17.4 45.3125 29 45.3125C40.6 45.3125 50.6593 38.9688 56.0968 29.4531L56.3687 29L56.0968 28.5469ZM3.80623 29C7.79373 22.2937 14.2281 17.3094 21.8406 15.4062C16.8562 17.9437 13.5031 23.1094 13.5031 29.0906C13.5031 34.8 16.675 39.7844 21.2969 42.5031C13.8656 40.4188 7.61247 35.525 3.80623 29ZM28.9093 42.6844C25.1937 42.6844 21.75 41.1438 19.3031 38.6969C16.8562 36.25 15.3156 32.8062 15.3156 29.0906C15.3156 25.375 16.8562 21.9312 19.3031 19.4844C21.75 17.0375 25.1937 15.4969 28.9093 15.4969C32.625 15.4969 36.0687 17.0375 38.5156 19.4844C40.9625 21.9312 42.5031 25.375 42.5031 29.0906C42.5031 32.8062 40.9625 36.25 38.5156 38.6969C36.0687 41.1438 32.7156 42.6844 28.9093 42.6844ZM36.4312 42.5031C41.1437 39.875 44.3156 34.8 44.3156 29.0906C44.3156 23.0187 40.8718 17.8531 35.7968 15.3156C43.5906 17.2187 50.2062 22.2031 54.1937 29C50.2968 35.6156 43.9531 40.5094 36.4312 42.5031Z" fill="#323B4A"/>
<path d="M28.9093 17.3093C22.3843 17.3093 17.1281 22.5656 17.1281 29.0906C17.1281 35.6156 22.3843 40.8718 28.9093 40.8718C35.4343 40.8718 40.6906 35.6156 40.6906 29.0906C40.6906 22.5656 35.4343 17.3093 28.9093 17.3093ZM35.9781 36.1593C34.1656 37.9718 31.7187 39.0593 28.9093 39.0593C26.1906 39.0593 23.6531 37.9718 21.8406 36.1593C20.0281 34.3468 18.9406 31.8999 18.9406 29.0906C18.9406 26.3718 20.0281 23.8343 21.8406 22.0218C23.6531 20.2093 26.0999 19.1218 28.9093 19.1218C31.6281 19.1218 34.1656 20.2093 35.9781 22.0218C37.7906 23.8343 38.8781 26.2812 38.8781 29.0906C38.8781 31.8093 37.7906 34.3468 35.9781 36.1593Z" fill="#323B4A"/>
<path d="M28.9093 22.7468C25.3749 22.7468 22.5656 25.5562 22.5656 29.0906C22.5656 32.6249 25.3749 35.4343 28.9093 35.4343C32.4437 35.4343 35.2531 32.6249 35.2531 29.0906C35.2531 25.5562 32.4437 22.7468 28.9093 22.7468ZM32.0812 32.2624C31.2656 33.0781 30.0874 33.6218 28.9093 33.6218C27.6406 33.6218 26.5531 33.0781 25.7374 32.2624C24.9218 31.4468 24.3781 30.2687 24.3781 29.0906C24.3781 27.8218 24.9218 26.7343 25.7374 25.9187C26.5531 25.1031 27.7312 24.5593 28.9093 24.5593C30.1781 24.5593 31.2656 25.1031 32.0812 25.9187C32.8968 26.7343 33.4406 27.9124 33.4406 29.0906C33.4406 30.3593 32.8968 31.4468 32.0812 32.2624Z" fill="#323B4A"/>
</svg>
