<svg width="58" height="58" viewBox="0 0 58 58" fill="none" xmlns="http://www.w3.org/2000/svg">
<path d="M29 10.6033C25.7375 10.6033 22.475 11.872 20.0281 14.3189C17.5813 16.7658 16.3125 20.0283 16.3125 23.2908C16.3125 26.5533 17.5813 29.8158 20.0281 32.2626C22.475 34.7095 25.7375 35.9783 29 35.9783C32.2625 35.9783 35.525 34.7095 37.9719 32.2626C40.4188 29.8158 41.6875 26.5533 41.6875 23.2908C41.6875 20.0283 40.4188 16.7658 37.9719 14.3189C35.525 11.872 32.2625 10.6033 29 10.6033ZM36.7031 30.9939C34.6187 33.0783 31.8094 34.1658 29 34.1658C26.1906 34.1658 23.4719 33.0783 21.2969 30.9939C19.2125 28.9095 18.125 26.1001 18.125 23.2908C18.125 20.4814 19.2125 17.7626 21.2969 15.5876C23.3812 13.5033 26.1906 12.4158 29 12.4158C31.8094 12.4158 34.5281 13.5033 36.7031 15.5876C38.7875 17.672 39.875 20.4814 39.875 23.2908C39.875 26.1001 38.7875 28.8189 36.7031 30.9939Z" fill="#323B4A"/>
<path d="M26.6438 23.7437L23.2906 20.3906L22.6563 21.025L19.9375 23.925L26.7344 30.7218L37.9719 19.4843L34.4375 15.95L26.6438 23.7437ZM26.7344 28.1843L22.475 23.925L23.3812 22.9281L26.7344 26.2812L34.5281 18.4875L35.525 19.4843L26.7344 28.1843Z" fill="#323B4A"/>
<path d="M48.3031 21.1157C48.2125 20.5719 48.0312 20.2094 47.85 19.7563C47.4875 19.2125 47.0343 18.7594 46.7625 18.3063C46.4 17.9438 46.1281 17.4907 46.0375 17.2188C45.9468 17.0375 45.9468 16.7657 45.9468 16.4032C45.9468 15.95 45.9468 15.4969 45.9468 14.9532C45.9468 14.3188 45.8562 13.5938 45.4937 12.8688C45.2219 12.4157 44.8593 12.1438 44.4968 11.8719C43.9531 11.5094 43.4093 11.3282 42.8656 11.0563C42.4125 10.875 41.9593 10.6032 41.7781 10.4219C41.5062 10.15 41.2343 9.51567 40.8718 8.79067C40.6906 8.42817 40.5093 8.06567 40.3281 7.70317C40.0562 7.34067 39.7844 6.97817 39.3312 6.7063C38.6968 6.3438 37.9718 6.3438 37.2468 6.3438C36.7031 6.3438 36.25 6.3438 35.7969 6.3438C35.4343 6.3438 35.1625 6.3438 34.9812 6.25317C34.6187 6.16255 34.075 5.70942 33.5312 5.16567C33.2593 4.8938 32.8969 4.62192 32.5344 4.44067C32.1719 4.1688 31.7187 3.98755 31.175 3.98755C31.0844 3.98755 30.9937 3.98755 30.9031 3.98755C30.45 3.98755 29.9969 4.07817 29.6343 4.25942C29 4.44067 28.5469 4.71255 28.0937 4.98442C27.6406 5.2563 27.2781 5.34692 27.0062 5.43755H26.825C26.4625 5.43755 26.0093 5.34692 25.4656 5.16567C24.9218 4.98442 24.2875 4.80317 23.5625 4.80317C23.2906 4.80317 22.9281 4.80317 22.5656 4.98442C22.1125 5.16567 21.6594 5.43755 21.3875 5.70942C20.9344 6.16255 20.5718 6.7063 20.3 7.15942C19.9375 7.61255 19.6656 7.97505 19.3937 8.06567C19.2125 8.1563 19.0312 8.24692 18.7594 8.24692C18.3062 8.33755 17.7625 8.42817 17.1281 8.60942C16.4937 8.79067 15.8593 8.97192 15.3156 9.51567C14.9531 9.87817 14.7719 10.3313 14.5906 10.6938C14.4094 11.3282 14.3187 11.9625 14.2281 12.5063C14.1375 13.05 14.0469 13.5032 13.8656 13.6844C13.6844 14.0469 13.1406 14.4094 12.5062 14.8625C12.2344 15.1344 11.8719 15.3157 11.5094 15.6782C11.2375 15.95 10.875 16.4032 10.7843 16.8563C10.6937 17.2188 10.6031 17.4907 10.6031 17.8532C10.6031 18.5782 10.7844 19.2125 10.9656 19.7563C11.1469 20.3 11.2375 20.8438 11.2375 21.1157V21.2969C11.2375 21.6594 10.9656 22.2032 10.6031 22.8375C10.4219 23.2001 10.2406 23.4719 10.0594 23.925C9.8781 24.2875 9.78748 24.7407 9.78748 25.1938C9.78748 25.2844 9.78748 25.375 9.78748 25.4657C9.8781 26.0094 10.0594 26.3719 10.2406 26.8251C10.6031 27.3688 11.0562 27.8219 11.3281 28.275C11.6906 28.6376 11.9625 29.0907 12.0531 29.3626C12.1437 29.5438 12.1437 29.8157 12.1437 30.1782C12.1437 30.6313 12.1437 31.0844 12.1437 31.6282C12.1437 32.2626 12.2343 32.9875 12.5968 33.7125C12.8687 34.1657 13.2312 34.4375 13.5937 34.7094C14.1375 35.0719 14.6812 35.2532 15.225 35.525C15.6781 35.7063 16.1312 35.9782 16.3125 36.1594C16.5844 36.4313 16.8562 37.0657 17.2187 37.7907C17.4 38.1532 17.5812 38.5157 17.7625 38.8782C18.0344 39.2407 18.3062 39.6032 18.7594 39.875C18.85 39.9657 19.0312 39.9657 19.1219 40.0563L15.3156 51.3844L21.2968 49.4813L24.9219 54.6469L29.0906 42.2313C29.0906 42.2313 29.1812 42.2313 29.1812 42.1407L33.35 54.5563L36.975 49.3907L42.9562 51.2938L38.6968 38.6063L38.7875 38.5157C38.9687 38.425 39.15 38.3344 39.5125 38.2438C39.9656 38.1532 40.5093 38.0625 41.1437 37.8813C41.7781 37.7 42.4125 37.5188 42.9562 36.975C43.3187 36.6125 43.5 36.1594 43.6812 35.7969C43.8625 35.1625 43.9531 34.5282 44.0437 33.9844C44.1343 33.4407 44.225 32.9876 44.4062 32.8063C44.5875 32.4438 45.1312 32.0813 45.7656 31.6282C46.0375 31.3563 46.4 31.175 46.7625 30.8125C47.0343 30.5407 47.3969 30.0875 47.4875 29.6344C47.5781 29.2719 47.6687 29 47.6687 28.6376C47.6687 27.9125 47.4875 27.2782 47.3062 26.7344C47.125 26.1907 47.0344 25.6469 47.0344 25.375V25.1938C47.0344 24.8313 47.3062 24.2875 47.6687 23.6532C47.85 23.2907 48.0312 23.0188 48.2125 22.5657C48.3937 22.2032 48.4843 21.75 48.4843 21.2969C48.3937 21.2969 48.3031 21.2063 48.3031 21.1157ZM24.1968 50.5688L21.9312 47.3063L18.125 48.4844L20.9344 40.2375C21.3875 40.2375 21.9312 40.2375 22.2937 40.2375C22.6562 40.2375 22.9281 40.2375 23.1093 40.3282C23.4718 40.4188 24.0156 40.8719 24.5593 41.4157C24.8312 41.6875 25.1937 41.9594 25.5562 42.1407C25.9187 42.4125 26.3719 42.5938 26.9156 42.5938L24.1968 50.5688ZM36.0687 47.3063L33.8031 50.5688L30.7219 41.325C30.8125 41.325 30.9937 41.2344 31.0843 41.2344H31.2656C31.6281 41.2344 32.0812 41.325 32.625 41.5063C33.1687 41.6875 33.8031 41.8688 34.5281 41.8688C34.8 41.8688 35.1625 41.8688 35.525 41.6875C35.9781 41.5063 36.4312 41.2344 36.7031 40.9625C36.8843 40.7813 37.0656 40.5094 37.2468 40.3282L39.9656 48.575L36.0687 47.3063ZM46.4 22.0219C46.2187 22.3844 46.0375 22.8375 45.7656 23.3813C45.4937 23.925 45.2218 24.4688 45.1312 25.1032C45.1312 25.1938 45.1312 25.375 45.1312 25.4657C45.1312 26.1907 45.3125 26.8251 45.4937 27.3688C45.675 27.9125 45.7656 28.4563 45.7656 28.7282C45.7656 28.9094 45.7656 29 45.675 29.0907C45.5844 29.2719 45.4937 29.3625 45.3125 29.5438C45.0406 29.8157 44.5875 30.1782 44.1343 30.45C43.6812 30.8125 43.1375 31.175 42.775 31.8094C42.5031 32.1719 42.4125 32.625 42.3218 32.9875C42.1406 33.6219 42.1406 34.1657 41.9593 34.6188C41.8687 35.0719 41.6875 35.4344 41.5062 35.6157C41.4156 35.7063 41.2344 35.7969 40.9625 35.8875C40.6 36.0688 40.0562 36.0688 39.5125 36.25C38.9687 36.3407 38.3343 36.5219 37.7 36.8844C36.8843 37.4282 36.4312 38.1532 35.9781 38.6969C35.7969 38.9688 35.525 39.2407 35.3437 39.4219C35.1625 39.6032 34.9812 39.6938 34.8906 39.7844C34.8 39.7844 34.7093 39.875 34.5281 39.875C34.1656 39.875 33.7125 39.7844 33.1687 39.6032C32.625 39.4219 31.9906 39.2407 31.2656 39.2407C31.175 39.2407 30.9937 39.2407 30.9031 39.2407C29.9968 39.3313 29.2718 39.7844 28.6375 40.1469C28.3656 40.3282 28.0031 40.4188 27.8219 40.6C27.55 40.6907 27.3687 40.7813 27.1875 40.7813H27.0968C26.9156 40.7813 26.7344 40.6907 26.5531 40.6C26.1906 40.4188 25.8281 40.0563 25.375 39.6032C24.9219 39.2407 24.3781 38.7875 23.7437 38.6063C23.2 38.425 22.7469 38.425 22.2937 38.425C21.75 38.425 21.2062 38.5157 20.8437 38.425C20.3 38.425 19.9375 38.3344 19.7562 38.2438C19.6656 38.1532 19.4843 38.0625 19.3937 37.7907C19.2125 37.4282 18.9406 36.975 18.7594 36.4313C18.4875 35.8875 18.2156 35.2532 17.7625 34.8C17.0375 34.1657 16.2219 33.8032 15.5875 33.5313C15.225 33.35 14.9531 33.2594 14.7718 33.0782C14.5906 32.8969 14.4094 32.8063 14.3187 32.7157C14.2281 32.5344 14.1375 32.1719 14.1375 31.6282C14.1375 31.1751 14.1375 30.7219 14.1375 30.1782C14.1375 29.725 14.1375 29.2719 13.9562 28.7282C13.5937 27.8219 13.05 27.1875 12.5062 26.6438C12.2344 26.3719 12.0531 26.1 11.9625 25.9188C11.7812 25.6469 11.7812 25.4657 11.7812 25.375V25.2844C11.7812 25.1032 11.7812 24.9219 11.9625 24.65C12.1437 24.2875 12.325 23.8344 12.5968 23.2907C12.8687 22.7469 13.1406 22.2032 13.2312 21.5688C13.2312 21.4782 13.2312 21.2969 13.2312 21.2063C13.2312 20.4813 13.05 19.8469 12.8687 19.3032C12.6875 18.7594 12.5968 18.2157 12.5968 17.9438C12.5968 17.7625 12.5969 17.6719 12.6875 17.5813C12.7781 17.4 12.8687 17.3094 13.05 17.1282C13.3218 16.8563 13.775 16.4938 14.2281 16.2219C14.6812 15.8594 15.225 15.4969 15.5875 14.8625C15.8594 14.5 15.95 14.0469 16.0406 13.6844C16.2219 13.05 16.2219 12.5063 16.4031 12.0532C16.4937 11.6 16.675 11.2375 16.8562 11.0563C16.9469 10.9657 17.1281 10.875 17.4 10.7844C17.7625 10.6032 18.3062 10.6032 18.85 10.4219C19.3937 10.3313 20.0281 10.15 20.6625 9.78755C21.4781 9.2438 21.9312 8.5188 22.3843 7.97505C22.5656 7.70317 22.8375 7.4313 23.0187 7.25005C23.2 7.0688 23.3812 6.97817 23.4718 6.88755C23.5625 6.88755 23.6531 6.79692 23.8343 6.79692C24.1968 6.79692 24.65 6.88755 25.1937 7.0688C25.7375 7.25005 26.3718 7.4313 27.0968 7.4313C27.1875 7.4313 27.3687 7.4313 27.4593 7.4313C28.3656 7.34067 29.0906 6.88755 29.725 6.52505C29.9968 6.3438 30.3594 6.25317 30.5406 6.07192C30.8125 5.9813 30.9937 5.89067 31.175 5.89067H31.2656C31.4468 5.89067 31.6281 5.9813 31.8093 6.07192C32.1718 6.25317 32.5344 6.61567 32.9875 7.0688C33.4406 7.4313 33.9844 7.88442 34.6187 8.06567C34.8906 8.1563 35.3437 8.1563 35.7969 8.1563C36.3406 8.1563 36.8843 8.06567 37.2468 8.1563C37.7906 8.1563 38.1531 8.24692 38.3343 8.33755C38.425 8.42817 38.6062 8.5188 38.6968 8.79067C38.8781 9.15317 39.15 9.6063 39.3312 10.15C39.6031 10.6938 39.875 11.3282 40.3281 11.7813C41.0531 12.4157 41.8687 12.7782 42.5031 13.05C42.8656 13.2313 43.1375 13.3219 43.3187 13.5032C43.5 13.6844 43.6812 13.775 43.7718 13.8657C43.8625 14.0469 43.9531 14.4094 43.9531 14.9532C43.9531 15.4063 43.9531 15.8594 43.9531 16.4032C43.9531 16.8563 43.9531 17.3094 44.1343 17.8532C44.4968 18.7594 45.0406 19.3938 45.5843 19.9375C45.8562 20.2094 46.0375 20.4813 46.1281 20.6625C46.3093 20.9344 46.3093 21.1157 46.3093 21.2063V21.2969C46.5812 21.5688 46.4906 21.75 46.4 22.0219Z" fill="#323B4A"/>
</svg>
