<svg width="58" height="58" viewBox="0 0 58 58" fill="none" xmlns="http://www.w3.org/2000/svg">
<path d="M44.6781 9.0625L45.8563 2.71875H11.9625L13.1406 9.0625H5.98126V17.3094C5.98126 23.7437 10.7844 29 16.9469 29.725C18.0344 34.5281 21.75 38.1531 26.3719 39.0594L25.6469 50.2063H18.4875V55.2812H39.3313V54.375V50.2969H32.1719L31.4469 39.15C36.0688 38.1531 39.875 34.5281 40.8719 29.8156C47.125 29.0906 52.0188 23.8344 52.0188 17.3094V9.0625H44.6781ZM43.8625 13.6844H47.5781V17.3094C47.5781 20.9344 45.1313 24.0156 41.7781 25.0125L43.8625 13.6844ZM16.0406 24.9219C12.7781 23.925 10.4219 20.8438 10.4219 17.3094V13.6844H14.0469L16.0406 24.9219ZM7.79376 17.3094V10.875H13.5031L13.6844 11.8719H8.51876V17.3094C8.51876 22.0219 11.8719 26.0094 16.3125 26.9156L16.4938 27.9125C11.6 27.0062 7.79376 22.5656 7.79376 17.3094ZM37.5188 52.1094V53.4688H20.3V52.1094H25.5563H32.2625H37.5188ZM29.6344 39.4219L30.3594 50.2969H27.55L28.275 39.4219H29H29.6344ZM28.9094 37.6094C23.8344 37.6094 19.4844 33.9844 18.5781 29L14.1375 4.53125H43.6813L39.2406 29C38.3344 33.9844 33.9844 37.6094 28.9094 37.6094ZM50.2063 17.3094C50.2063 22.6562 46.3094 27.0062 41.2344 27.9125L41.4156 26.9156C45.9469 26.1 49.3906 22.1125 49.3906 17.3094V11.8719H44.1344L44.4063 10.875H50.2063V17.3094Z" fill="black"/>
<path d="M31.5375 15.9499L28.9094 7.88428L28.0031 10.5124L26.2813 15.9499H17.8531L24.65 20.9343L22.0219 28.9999L28.8188 24.0155L35.6156 28.9999L32.9875 20.9343L39.7844 15.9499H31.5375ZM32.3531 24.1968L28.9094 21.7499L25.5563 24.1968L26.825 20.2093L23.4719 17.7624H27.6406L28.9094 13.7749L30.1781 17.7624H34.4375L31.0844 20.2093L32.3531 24.1968Z" fill="black"/>
</svg>
