<svg width="54" height="54" viewBox="0 0 54 54" fill="none" xmlns="http://www.w3.org/2000/svg">
<path d="M48.9375 20.682H45.765C45.4309 19.6948 45.0816 18.873 44.6799 18.0815L44.7323 18.1946L46.9901 15.9604C47.5808 15.4541 47.952 14.7082 47.952 13.8746C47.952 13.1895 47.7006 12.5617 47.2838 12.0808L47.2871 12.0842L41.9243 6.72129C41.4467 6.30617 40.8206 6.05473 40.1338 6.05473C39.3002 6.05473 38.5526 6.42767 38.0514 7.0166L38.0481 7.01998L35.8003 9.26435C35.1219 8.91673 34.3018 8.56742 33.4547 8.27548L33.3163 8.23329L33.3315 5.06079C33.3366 4.99329 33.3399 4.91567 33.3399 4.83635C33.3399 3.39523 32.2262 2.21398 30.8121 2.10767H30.8036H23.2166C21.7924 2.21398 20.6769 3.39523 20.6769 4.83635C20.6769 4.91567 20.6803 4.99329 20.6871 5.07092V5.06079V8.2316C19.6999 8.56573 18.8798 8.91335 18.0883 9.31329L18.2014 9.26098L15.9671 7.00648C15.4626 6.41248 14.715 6.03954 13.8814 6.03954C13.1946 6.03954 12.5685 6.29267 12.0876 6.70948L12.0909 6.7061L6.72638 12.0707C6.31125 12.5482 6.05813 13.176 6.05813 13.8611C6.05813 14.6947 6.43106 15.4423 7.02 15.9435L7.02338 15.9469L9.26606 18.1895C8.91675 18.8696 8.56744 19.6931 8.2755 20.5436L8.235 20.682L5.0625 20.6668C4.995 20.6617 4.91738 20.6584 4.83806 20.6584C3.39694 20.6584 2.21569 21.7738 2.10938 23.1879V23.1964V30.7817C2.214 32.2059 3.39694 33.3214 4.83806 33.3214C4.91738 33.3214 4.995 33.318 5.07263 33.3112H5.0625H8.235C8.56913 34.2984 8.91675 35.1202 9.31838 35.9117L9.26775 35.8003L7.01494 38.0278C6.42263 38.534 6.04969 39.2833 6.04969 40.1186C6.04969 40.8054 6.30113 41.4332 6.71794 41.9141L6.71456 41.9107L12.0791 47.2736C12.4993 47.6887 13.0764 47.9469 13.716 47.9469C13.7278 47.9469 13.7396 47.9469 13.7514 47.9469H13.7498C14.6188 47.925 15.3984 47.5571 15.957 46.9749L15.9587 46.9732L18.2031 44.7289C18.8831 45.0782 19.7066 45.4275 20.5571 45.7194L20.6955 45.7616L20.6803 48.9307C20.6753 48.9982 20.6719 49.0759 20.6719 49.1535C20.6719 50.5946 21.7873 51.7775 23.2014 51.8822H23.2099H30.7969C32.2194 51.7742 33.3332 50.5946 33.3332 49.1535C33.3332 49.0742 33.3298 48.9965 33.3231 48.9189V48.929V45.7549C34.3103 45.4207 35.1338 45.0714 35.9269 44.6698L35.8138 44.7221L38.043 46.9715C38.6033 47.552 39.3812 47.9199 40.2435 47.9402H40.2469H40.2503C40.2604 47.9402 40.2722 47.9402 40.2823 47.9402C40.9202 47.9402 41.4973 47.6854 41.9209 47.2736L47.2821 41.9124C47.6938 41.4922 47.9486 40.9151 47.9486 40.2789C47.9486 40.2637 47.9486 40.2502 47.9486 40.235C47.9284 39.3694 47.5622 38.5948 46.9834 38.0362L46.9817 38.0345L44.7356 35.7868C45.0833 35.1101 45.4309 34.29 45.7245 33.4429L45.7667 33.3028L48.9375 33.318C49.005 33.323 49.0826 33.3264 49.1603 33.3264C50.6031 33.3264 51.7843 32.211 51.8889 30.7952V30.7867V23.2014C51.7826 21.7772 50.6014 20.6634 49.1586 20.6634C49.0793 20.6634 49.0016 20.6668 48.9257 20.6735H48.9358L48.9375 20.682ZM48.9443 30.7969L44.8673 30.7766C44.8335 30.7766 44.8048 30.7935 44.7728 30.7952C44.4386 30.8357 44.145 30.9892 43.9273 31.2154C43.8345 31.3369 43.7535 31.4735 43.6894 31.6204L43.6843 31.6339C43.6759 31.6575 43.6573 31.6744 43.6506 31.6997C43.2456 33.1239 42.7174 34.3642 42.0576 35.5202L42.1014 35.4375C42.0103 35.6062 41.9563 35.8054 41.9563 36.018C41.9563 36.0197 41.9563 36.023 41.9563 36.0247C41.9563 36.0517 41.9614 36.072 41.9631 36.1007C41.9732 36.4162 42.0981 36.6997 42.2989 36.9124L42.3141 36.9512L45.1946 39.8351C45.3786 40.019 45.4258 40.1979 45.4916 40.1321L40.257 45.419C40.0899 45.3971 39.9431 45.3161 39.8385 45.1997L36.9748 42.309C36.9613 42.2938 36.9377 42.3005 36.9242 42.287C36.72 42.098 36.4517 41.9782 36.1547 41.9614H36.1513C36.1176 41.9563 36.0771 41.9529 36.0366 41.9512C35.8256 41.9512 35.6248 42.0052 35.4527 42.0997L35.4594 42.0964C34.3862 42.7072 33.1425 43.2371 31.8381 43.6202L31.7132 43.6522C31.6879 43.659 31.671 43.6775 31.6474 43.686C31.4854 43.7569 31.3453 43.8412 31.2171 43.9374L31.2221 43.934C31.1631 43.9914 31.1108 44.0539 31.0652 44.1197L31.0618 44.123C31.0163 44.1787 30.9724 44.2412 30.9353 44.3087L30.9319 44.3154C30.8762 44.4521 30.8323 44.6107 30.8087 44.7778L30.807 44.7896C30.8053 44.8166 30.7901 44.8419 30.7901 44.8689V48.9392C30.7901 49.1923 30.6973 49.3577 30.7901 49.361L23.3483 49.3999C23.2605 49.2868 23.2065 49.1417 23.2065 48.9847C23.2065 48.9712 23.2065 48.9577 23.2082 48.9442L23.2284 44.8757C23.2284 44.847 23.2149 44.8217 23.2116 44.7947C23.2031 44.7052 23.1863 44.6225 23.1609 44.5432L23.1626 44.5517C23.1424 44.4622 23.1154 44.3829 23.0816 44.307L23.085 44.3154C22.9973 44.1703 22.9011 44.0454 22.7931 43.9324C22.7441 43.8919 22.6884 43.8547 22.6311 43.821L22.6243 43.8176C22.5501 43.767 22.4674 43.7231 22.3779 43.6894L22.3695 43.686C22.3459 43.6775 22.329 43.659 22.3037 43.6522C20.8744 43.2455 19.629 42.7174 18.4697 42.0592L18.5558 42.1031C18.3887 42.012 18.1913 41.958 17.9803 41.958C17.9432 41.9563 17.9128 41.9647 17.8757 41.9664C17.5719 41.9799 17.2986 42.1014 17.091 42.2921C17.0775 42.3056 17.0573 42.2989 17.0438 42.3124L14.1666 45.1895C13.986 45.3701 13.8021 45.4241 13.8662 45.4899L8.57756 40.257C8.59781 40.0882 8.67881 39.9414 8.79694 39.8351L11.6893 36.9748L11.7079 36.9309C11.9019 36.7234 12.0268 36.4483 12.0403 36.1445V36.1412C12.042 36.1057 12.0488 36.0787 12.0488 36.0433C12.0488 36.0416 12.0488 36.0399 12.0488 36.0382C12.0488 35.8256 11.9948 35.6248 11.9003 35.451L11.9036 35.4577C11.2877 34.3845 10.7578 33.1442 10.3798 31.838L10.3494 31.7165C10.3427 31.6912 10.3224 31.6727 10.314 31.6474C10.2431 31.4887 10.1621 31.3504 10.0676 31.2255L10.071 31.2305C9.96131 31.1276 9.8415 31.0331 9.71325 30.9521L9.70313 30.947C9.61706 30.9049 9.51919 30.8711 9.41456 30.8509L9.40613 30.8492C9.35719 30.834 9.29644 30.8222 9.234 30.8137H9.22725C9.1935 30.8104 9.16481 30.7935 9.12938 30.7935H5.05913C4.80263 30.7969 4.64063 30.7007 4.63725 30.7901L4.60013 23.3499C4.71319 23.2622 4.85494 23.2082 5.01188 23.2082C5.02706 23.2082 5.04056 23.2082 5.05575 23.2099H5.05406L9.13106 23.2301C9.38756 23.2234 9.62381 23.139 9.81788 23.0006L9.8145 23.004C9.855 22.9804 9.88875 22.9567 9.9225 22.9314L9.91913 22.9331C10.1031 22.7846 10.2414 22.5855 10.3157 22.3577L10.3174 22.3492C10.3224 22.3324 10.341 22.3256 10.3461 22.307C10.7544 20.8777 11.2826 19.6357 11.9424 18.4764L11.8986 18.5608C11.9897 18.392 12.0437 18.1929 12.0437 17.9803C12.0437 17.9786 12.0437 17.9786 12.0437 17.9769C12.0454 17.9449 12.0386 17.9212 12.0369 17.8892C12.0251 17.5787 11.9019 17.2985 11.7045 17.0876L11.6876 17.0471L8.81044 14.1699C8.62819 13.9843 8.57081 13.797 8.51344 13.8695L13.7481 8.58092C13.9185 8.59442 14.067 8.67879 14.1666 8.80198L14.1683 8.80367L17.0319 11.6944C17.0623 11.7247 17.1096 11.7129 17.1416 11.7399C17.3526 11.9441 17.6394 12.0707 17.9567 12.0707C18.1761 12.0707 18.3803 12.0099 18.5558 11.9053L18.5507 11.9087C19.6239 11.2944 20.8659 10.7662 22.1704 10.3865L22.2919 10.3562C22.3155 10.3494 22.3324 10.3309 22.356 10.3241C22.4522 10.2887 22.5332 10.2448 22.6108 10.1942L22.6058 10.1975C22.8808 10.0457 23.0799 9.78579 23.1474 9.47698L23.1491 9.47023C23.1728 9.39767 23.1913 9.31329 23.1998 9.22554V9.22048C23.2014 9.19348 23.2149 9.16985 23.2149 9.14285V5.0726C23.2149 4.81779 23.3094 4.65242 23.2166 4.65073L30.6585 4.61192C30.7463 4.72498 30.7986 4.86842 30.7986 5.02535C30.7986 5.04054 30.7986 5.05404 30.7969 5.06923L30.7766 9.13779C30.7766 9.16479 30.7901 9.18842 30.7918 9.2171C30.8003 9.30992 30.8171 9.39598 30.8441 9.47867L30.8424 9.47023C30.9623 9.8651 31.2525 10.1773 31.6254 10.3241L31.6339 10.3275C31.6575 10.3359 31.6761 10.3545 31.6997 10.3612C33.1256 10.7696 34.3659 11.2978 35.5219 11.9559L35.4375 11.912C35.6147 12.0133 35.8273 12.074 36.0551 12.074H36.0568C36.3656 12.0605 36.6424 11.9357 36.8516 11.7399C36.8803 11.7146 36.9242 11.7264 36.9512 11.6994L39.8351 8.82223C40.0123 8.64335 40.1946 8.59104 40.1321 8.52523L45.4191 13.7599C45.3988 13.9286 45.3195 14.0737 45.2014 14.18L42.3073 17.0437L42.2888 17.0876C42.093 17.2952 41.9681 17.5719 41.9546 17.8774V17.8807C41.9529 17.9145 41.9462 17.9415 41.9462 17.9752C41.9462 17.9769 41.9462 17.9786 41.9462 17.9803C41.9462 18.1929 42.0002 18.3937 42.0947 18.5675L42.0913 18.5608C42.7073 19.634 43.2371 20.8744 43.6134 22.1788L43.6438 22.2986C43.6489 22.3189 43.6708 22.3273 43.6759 22.3459C43.7535 22.577 43.8902 22.7728 44.0674 22.9179L44.0691 22.9196C44.1011 22.9449 44.1383 22.9702 44.1754 22.9922L44.1804 22.9955C44.3694 23.1305 44.6057 23.2149 44.8588 23.2217H48.9308C49.1873 23.22 49.3493 23.3179 49.3526 23.2234L49.3881 30.6635C49.2784 30.753 49.1366 30.807 48.9831 30.807C48.9662 30.807 48.951 30.807 48.9341 30.8053H48.9358L48.9443 30.7969ZM27 18.9844C22.5737 18.9844 18.9844 22.5737 18.9844 27C18.9844 31.4263 22.5737 35.0156 27 35.0156C31.4263 35.0156 35.0156 31.4263 35.0156 27C35.0106 22.5754 31.4246 18.9894 27 18.9844ZM27 32.4844C23.9709 32.4844 21.5156 30.029 21.5156 27C21.5156 23.9709 23.9709 21.5156 27 21.5156C30.0291 21.5156 32.4844 23.9709 32.4844 27C32.481 30.0274 30.0274 32.481 27 32.4844Z" fill="#323B4A"/>
</svg>
