<svg width="58" height="58" viewBox="0 0 58 58" fill="none" xmlns="http://www.w3.org/2000/svg">
<path d="M55.3719 32.625V25.375L48.4844 24.65C47.9407 22.3844 47.125 20.3 45.9469 18.3969L50.2969 13.05L45.1313 7.88442L39.7844 12.2344C37.8813 11.0563 35.7969 10.15 33.5313 9.6063L32.625 2.62817H25.375L24.65 9.42505C22.3844 9.9688 20.3 10.7844 18.3969 12.0532L13.05 7.70317L7.88442 12.8688L12.2344 18.2157C11.0563 20.1188 10.15 22.2032 9.69692 24.4688L2.62817 25.375V32.625L9.51567 33.35C10.0594 35.6157 10.875 37.7 12.1438 39.6032L7.7938 45.0407L12.9594 50.2063L18.3969 45.8563C20.3 47.0344 22.3844 47.9407 24.5594 48.3938L25.2844 55.3719H32.625L33.35 48.3938C35.6157 47.85 37.7 47.0344 39.5125 45.8563L44.95 50.2063L50.1157 45.0407L45.7657 39.6032C46.9438 37.7 47.85 35.6157 48.3938 33.35L55.3719 32.625ZM53.5594 27.0063V31.0844L48.8469 31.6282C48.9375 30.8125 49.0282 29.9063 49.0282 29C49.0282 28.1844 48.9375 27.3688 48.8469 26.5532L53.5594 27.0063ZM44.95 10.2407L47.85 13.1407L44.8594 16.8563C43.8625 15.4969 42.5938 14.3188 41.325 13.2313L44.95 10.2407ZM27.0063 4.44067H31.0844L31.6282 9.15317C30.7219 9.06255 29.8157 8.97192 29 8.97192C28.1844 8.97192 27.2782 9.06255 26.4625 9.15317L27.0063 4.44067ZM10.2407 13.05L13.1407 10.15L16.8563 13.1407C15.4969 14.2282 14.3188 15.4063 13.2313 16.7657L10.2407 13.05ZM4.44067 30.9938V26.9157L9.15317 26.3719C9.15317 27.2782 9.06255 28.0938 9.06255 28.9094C9.06255 29.8157 9.15317 30.6313 9.2438 31.5375L4.44067 30.9938ZM13.1407 47.7594L10.2407 44.8594L13.2313 41.1438C14.3188 42.5032 15.4969 43.6813 16.8563 44.7688L13.1407 47.7594ZM30.9938 53.5594H26.9157L26.3719 48.7563C27.1875 48.8469 28.0938 48.9375 28.9094 48.9375C29.8157 48.9375 30.6313 48.8469 31.4469 48.7563L30.9938 53.5594ZM47.7594 44.95L44.8594 47.85L41.1438 44.8594C42.5032 43.8625 43.6813 42.5938 44.7688 41.2344L47.7594 44.95ZM41.7782 41.7782C38.5157 45.0407 33.9844 47.125 29 47.125C24.0157 47.125 19.4844 45.1313 16.2219 41.7782C12.9594 38.5157 10.875 33.9844 10.875 29C10.875 24.0157 12.8688 19.4844 16.2219 16.2219C19.4844 12.9594 24.0157 10.875 29 10.875C33.9844 10.875 38.5157 12.8688 41.7782 16.2219C45.0407 19.4844 47.125 24.0157 47.125 29C47.125 33.9844 45.1313 38.5157 41.7782 41.7782Z" fill="#323B4A"/>
<path d="M29 12.5969C20.0281 12.5969 12.6875 19.9375 12.6875 28.9094C12.6875 37.8813 20.0281 45.2219 29 45.2219C37.9719 45.2219 45.3125 37.8813 45.3125 28.9094C45.3125 19.9375 37.9719 12.5969 29 12.5969ZM23.3812 42.3219C22.9281 42.1407 22.475 41.8688 22.0219 41.6875V33.35H23.3812V42.3219ZM28.3656 43.4094V29.9969H29.725V43.4094C29.5437 43.4094 29.2719 43.4094 29.0906 43.4094C28.7281 43.4094 28.5469 43.4094 28.3656 43.4094ZM36.0687 41.5969C35.6156 41.8688 35.1625 42.05 34.7094 42.2313V26.6438H36.0687V41.5969ZM39.2406 39.2407C38.7875 39.6938 38.3344 40.0563 37.7906 40.5094V24.8313H32.8063V42.8657C32.3531 42.9563 31.9 43.0469 31.4469 43.1375V28.1844H26.4625V43.2282C26.0094 43.1376 25.5563 43.0469 25.1031 42.9563V31.5375H20.1188V40.4188C19.6656 40.0563 19.1219 39.6032 18.6688 39.15C16.0406 36.5219 14.4094 32.8969 14.4094 28.9094C14.4094 24.9219 16.0406 21.2969 18.6688 18.6688C21.2969 16.0407 24.9219 14.4094 28.9094 14.4094C32.8969 14.4094 36.5219 16.0407 39.15 18.6688C41.7781 21.2969 43.4094 24.9219 43.4094 28.9094C43.5 32.9875 41.8687 36.6125 39.2406 39.2407Z" fill="#323B4A"/>
<path d="M34.6526 18.6642L18.7996 28.176L19.7321 29.7302L35.5851 20.2184L34.6526 18.6642Z" fill="#323B4A"/>
</svg>
