<svg width="28" height="29" viewBox="0 0 28 29" fill="none" xmlns="http://www.w3.org/2000/svg">
<path d="M3.4987 7.6207C2.8547 7.6207 2.33203 8.14336 2.33203 8.78736C2.33203 9.43136 2.8547 9.95403 3.4987 9.95403H24.4987C25.1427 9.95403 25.6654 9.43136 25.6654 8.78736C25.6654 8.14336 25.1427 7.6207 24.4987 7.6207H3.4987ZM3.4987 13.454C2.8547 13.454 2.33203 13.9767 2.33203 14.6207C2.33203 15.2647 2.8547 15.7874 3.4987 15.7874H24.4987C25.1427 15.7874 25.6654 15.2647 25.6654 14.6207C25.6654 13.9767 25.1427 13.454 24.4987 13.454H3.4987ZM3.4987 19.2874C2.8547 19.2874 2.33203 19.81 2.33203 20.454C2.33203 21.098 2.8547 21.6207 3.4987 21.6207H24.4987C25.1427 21.6207 25.6654 21.098 25.6654 20.454C25.6654 19.81 25.1427 19.2874 24.4987 19.2874H3.4987Z" fill="white"/>
</svg>
