<svg width="207" height="50" viewBox="0 0 207 50" fill="none" xmlns="http://www.w3.org/2000/svg">
<path d="M59.3003 19.6491C58.3421 18.6558 57.0958 17.9108 55.5437 17.4082C53.9976 16.9175 52.2809 16.6632 50.3879 16.6632C48.6243 16.6632 46.8195 16.9175 44.9676 17.4082C43.1099 17.9108 41.3756 18.638 39.7589 19.6195C38.1422 20.5892 36.7078 21.8131 35.4556 23.2794C34.1975 24.7576 33.2569 26.49 32.6455 28.4707L29.753 37.7535C29.1358 39.7342 28.9888 41.4666 29.3063 42.9329C29.612 44.4111 30.2763 45.6291 31.2933 46.6047C32.3045 47.5684 33.5684 48.2957 35.0911 48.7805C36.6255 49.2476 38.2951 49.4841 40.094 49.4841C41.8636 49.4841 43.6507 49.2476 45.4732 48.7805C47.3015 48.2957 49.024 47.5684 50.6407 46.6047C52.2574 45.635 53.6801 44.4111 54.9441 42.9329C56.1963 41.4666 57.1369 39.7342 57.7542 37.7535L60.6054 28.6067C61.2227 26.6141 61.3932 24.8758 61.1287 23.3799C60.8641 21.884 60.2468 20.6483 59.2945 19.655L59.3003 19.6491ZM50.0411 36.228C49.7119 37.2746 49.271 38.1555 48.7007 38.871C48.1363 39.5923 47.5014 40.1777 46.8018 40.627C46.1022 41.0882 45.385 41.4075 44.656 41.6085C43.927 41.7977 43.2216 41.8923 42.5337 41.8923C41.7636 41.8923 41.0699 41.7977 40.4291 41.6085C39.8059 41.4075 39.2827 41.0823 38.8594 40.627C38.4479 40.1777 38.1893 39.5923 38.0893 38.871C37.9835 38.1496 38.1011 37.2746 38.4303 36.228L40.4115 29.8542C40.7348 28.8136 41.1757 27.9445 41.7401 27.2409C42.2986 26.555 42.9276 25.9815 43.6331 25.5203C44.3268 25.065 45.0617 24.7457 45.8259 24.5506C46.6137 24.3496 47.325 24.255 48.0246 24.255C48.7066 24.255 49.3591 24.3496 49.9647 24.5506C50.5702 24.7457 51.0816 25.065 51.4991 25.5203C51.9165 25.9815 52.1869 26.555 52.3162 27.2409C52.4397 27.9445 52.3456 28.8136 52.0223 29.8542L50.0293 36.228H50.0411Z" fill="#00813B"/>
<path d="M61.1757 49.1589H69.3591L77.1427 24.19H88.6242L80.8523 49.1589H89.0416L99.0592 16.9825H71.1874L61.1757 49.1589Z" fill="#00813B"/>
<path d="M129.03 19.6491C128.072 18.6558 126.819 17.9108 125.279 17.4082C123.733 16.9175 122.022 16.6632 120.123 16.6632C118.354 16.6632 116.549 16.9175 114.709 17.4082C112.845 17.9108 111.111 18.638 109.5 19.6195C107.889 20.5892 106.449 21.8131 105.197 23.2794C103.939 24.7576 103.004 26.49 102.387 28.4707L99.5001 37.7535C98.8829 39.7342 98.7241 41.4666 99.0475 42.9329C99.3649 44.4111 100.023 45.6291 101.04 46.6047C102.052 47.5684 103.316 48.2957 104.838 48.7805C106.367 49.2476 108.042 49.4841 109.847 49.4841C111.605 49.4841 113.398 49.2476 115.22 48.7805C117.054 48.2957 118.771 47.5684 120.388 46.6047C121.999 45.635 123.433 44.4111 124.691 42.9329C125.937 41.4666 126.878 39.7342 127.501 37.7535L130.347 28.6067C130.97 26.6141 131.146 24.8758 130.888 23.3799C130.617 21.884 129.994 20.6483 129.047 19.655L129.03 19.6491ZM119.765 36.228C119.441 37.2746 118.995 38.1555 118.436 38.871C117.86 39.5923 117.225 40.1777 116.52 40.627C115.82 41.0882 115.114 41.4075 114.385 41.6085C113.657 41.7977 112.951 41.8923 112.263 41.8923C111.487 41.8923 110.799 41.7977 110.159 41.6085C109.535 41.4075 109.012 41.0823 108.595 40.627C108.177 40.1777 107.925 39.5923 107.825 38.871C107.725 38.1496 107.831 37.2746 108.16 36.228L110.141 29.8542C110.47 28.8136 110.905 27.9445 111.475 27.2409C112.022 26.555 112.663 25.9815 113.368 25.5203C114.062 25.065 114.803 24.7457 115.567 24.5506C116.349 24.3496 117.066 24.255 117.754 24.255C118.448 24.255 119.1 24.3496 119.694 24.5506C120.306 24.7457 120.817 25.065 121.234 25.5203C121.652 25.9815 121.916 26.555 122.057 27.2409C122.175 27.9445 122.075 28.8136 121.752 29.8542L119.765 36.228Z" fill="#00813B"/>
<path d="M139.629 31.2615C138.983 33.3427 138.348 35.081 137.707 36.4764C137.084 37.8836 136.384 39.0425 135.638 39.9471C134.873 40.8517 134.003 41.5849 133.016 42.1229C132.034 42.6669 130.852 43.1222 129.494 43.5183L129.147 49.9985C133.868 49.36 137.672 47.4975 140.588 44.4288C143.492 41.372 145.861 36.9257 147.672 31.1077L149.87 24.0481H157.736L149.917 49.153H158.107L168.107 17.0475H144.044L139.624 31.2496L139.629 31.2615Z" fill="#00813B"/>
<path d="M195.461 31.4506C194.027 29.6414 191.458 28.7249 187.76 28.7249H180.341L183.98 17.0534H175.914L165.914 49.1589H181.587C183.562 49.1589 185.367 48.8692 186.984 48.2898C188.606 47.7044 190.035 46.9239 191.258 45.9543C192.486 44.9846 193.509 43.8849 194.321 42.6491C195.138 41.4134 195.743 40.1481 196.143 38.8473C197.113 35.7373 196.884 33.2717 195.455 31.4506H195.461ZM186.331 41.3779C185.449 42.0283 184.297 42.3535 182.875 42.3535H176.031L178.195 35.4121H185.032C186.543 35.4121 187.507 35.7728 187.924 36.4764C188.354 37.1977 188.424 37.9841 188.16 38.8473C187.83 39.8879 187.225 40.7394 186.331 41.3779Z" fill="#00813B"/>
<path d="M53.9682 0.0133057H2.67489L0 8.61024H21.2992L8.61845 49.3126H17.1722L29.8471 8.61024H51.2933L53.9682 0.0133057Z" fill="#00813B"/>
<path d="M59.5473 0.0133057L56.8724 8.61024H186.614L189.283 0.0133057H59.5473Z" fill="#00813B"/>
<path d="M200.064 7.26809V2.66808H202.01C202.498 2.66808 202.857 2.70947 203.074 2.79225C203.298 2.87502 203.474 3.02284 203.609 3.22978C203.745 3.44263 203.809 3.68505 203.809 3.95703C203.809 4.30588 203.709 4.58968 203.509 4.81436C203.31 5.03904 203.01 5.18094 202.604 5.24007C202.804 5.35832 202.969 5.48248 203.098 5.62439C203.227 5.76629 203.404 6.01462 203.621 6.36938L204.18 7.26809H203.074L202.41 6.26295C202.175 5.90819 202.01 5.6776 201.922 5.58891C201.834 5.49431 201.74 5.43518 201.646 5.39971C201.546 5.36423 201.393 5.34649 201.176 5.34649H200.987V7.26809H200.059H200.064ZM201.94 0.00149536C203.304 0.00149536 204.538 0.557281 205.432 1.456C206.325 2.35471 206.878 3.59636 206.878 4.96809C206.878 6.33981 206.325 7.58146 205.432 8.48018C204.538 9.37889 203.304 9.93468 201.94 9.93468C200.576 9.93468 199.341 9.37889 198.448 8.48018C197.554 7.58146 197.002 6.33981 197.002 4.96809C197.002 3.59636 197.554 2.35471 198.448 1.456C199.341 0.557281 200.576 0.00149536 201.94 0.00149536ZM204.685 2.20099C203.98 1.49739 203.01 1.05985 201.94 1.05985C200.87 1.05985 199.894 1.49739 199.194 2.20099C198.489 2.9105 198.06 3.88608 198.06 4.96217C198.06 6.04418 198.495 7.01976 199.194 7.72336C199.894 8.43288 200.87 8.8645 201.94 8.8645C203.016 8.8645 203.986 8.42696 204.685 7.72336C205.385 7.01976 205.82 6.03827 205.82 4.96217C205.82 3.88017 205.385 2.90459 204.685 2.20099ZM200.987 4.61333H201.669C202.11 4.61333 202.387 4.59559 202.498 4.5542C202.61 4.51873 202.698 4.45369 202.757 4.35909C202.822 4.26449 202.851 4.15215 202.851 4.01616C202.851 3.86243 202.81 3.73826 202.728 3.63775C202.645 3.54315 202.528 3.48402 202.381 3.46037C202.304 3.44855 202.081 3.44263 201.705 3.44263H200.982V4.61333H200.987Z" fill="#00813B"/>
</svg>
